<svg width="22" height="22" viewBox="0 0 22 22" fill="none" xmlns="http://www.w3.org/2000/svg">
<path d="M9.63235 17.9926H11.4847V16.6695C12.3668 16.5107 13.1254 16.1667 13.7605 15.6374C14.3956 15.1082 14.7132 14.3231 14.7132 13.2823C14.7132 12.5413 14.5015 11.8621 14.0781 11.2447C13.6547 10.6272 12.8079 10.0891 11.5377 9.63046C10.4792 9.27763 9.74702 8.9689 9.34126 8.70427C8.9355 8.43965 8.73263 8.07799 8.73263 7.61931C8.73263 7.16062 8.89581 6.79897 9.22218 6.53435C9.54855 6.26972 10.0205 6.13741 10.6379 6.13741C11.2025 6.13741 11.6435 6.27413 11.9611 6.54758C12.2786 6.82102 12.5079 7.16062 12.6491 7.56638L14.3427 6.87836C14.1486 6.2609 13.7914 5.72283 13.2709 5.26415C12.7505 4.80546 12.1728 4.54966 11.5377 4.49673V3.17361H9.68528V4.49673C8.80319 4.69079 8.11517 5.07891 7.6212 5.66108C7.12723 6.24326 6.88025 6.896 6.88025 7.61931C6.88025 8.44847 7.12282 9.11885 7.60797 9.63046C8.09311 10.1421 8.85612 10.5831 9.89698 10.9536C11.0084 11.3593 11.7802 11.721 12.2124 12.0385C12.6447 12.3561 12.8608 12.7707 12.8608 13.2823C12.8608 13.8645 12.6535 14.2923 12.2389 14.5657C11.8243 14.8392 11.326 14.9759 10.7438 14.9759C10.1616 14.9759 9.64558 14.7951 9.19572 14.4334C8.74586 14.0717 8.41508 13.5293 8.20338 12.806L6.45685 13.494C6.70383 14.3408 7.08754 15.0244 7.60797 15.5448C8.1284 16.0653 8.80319 16.4225 9.63235 16.6166V17.9926ZM10.585 21.1681C9.12074 21.1681 7.74469 20.8903 6.45685 20.3345C5.16901 19.7788 4.04876 19.0246 3.09611 18.072C2.14346 17.1193 1.38928 15.9991 0.833569 14.7113C0.277856 13.4234 0 12.0474 0 10.5831C0 9.11885 0.277856 7.7428 0.833569 6.45496C1.38928 5.16712 2.14346 4.04687 3.09611 3.09422C4.04876 2.14157 5.16901 1.38739 6.45685 0.831677C7.74469 0.275964 9.12074 -0.00189209 10.585 -0.00189209C12.0493 -0.00189209 13.4253 0.275964 14.7132 0.831677C16.001 1.38739 17.1212 2.14157 18.0739 3.09422C19.0265 4.04687 19.7807 5.16712 20.3364 6.45496C20.8921 7.7428 21.17 9.11885 21.17 10.5831C21.17 12.0474 20.8921 13.4234 20.3364 14.7113C19.7807 15.9991 19.0265 17.1193 18.0739 18.072C17.1212 19.0246 16.001 19.7788 14.7132 20.3345C13.4253 20.8903 12.0493 21.1681 10.585 21.1681Z" fill="white"/>
</svg>
