<svg width="30" height="22" viewBox="0 0 30 22" fill="none" xmlns="http://www.w3.org/2000/svg">
<path d="M11.5858 20.8932L11.5777 20.8897L11.552 20.8757C11.4018 20.7931 11.2529 20.7083 11.1052 20.6214C9.32928 19.5661 7.66965 18.3265 6.15383 16.923C3.46933 14.4182 0.625 10.7012 0.625 6.12319C0.625 2.70719 3.49967 -0.00180931 6.96933 -0.00180931C7.93388 -0.00653364 8.88708 0.206255 9.75804 0.62073C10.629 1.03521 11.3953 1.6407 12 2.39219C12.6048 1.64055 13.3713 1.03496 14.2425 0.620476C15.1137 0.205994 16.0671 -0.00670932 17.0318 -0.00180931C20.5003 -0.00180931 23.375 2.70719 23.375 6.12319C23.375 10.7024 20.5307 14.4194 17.8462 16.9219C16.3304 18.3253 14.6707 19.565 12.8948 20.6202C12.7471 20.7075 12.5982 20.7927 12.448 20.8757L12.4223 20.8897L12.4142 20.8944L12.4107 20.8955C12.2842 20.9625 12.1432 20.9976 12 20.9976C11.8568 20.9976 11.7158 20.9625 11.5893 20.8955L11.5858 20.8932Z" fill="white"/>
<path d="M21.8933 18.9649L25.0833 12.7316H22.8833V8.69823L19.5833 14.9316H21.8933V18.9649ZM22.3333 21.1649C21.3189 21.1649 20.3656 20.9724 19.4733 20.5874C18.5811 20.2024 17.805 19.6799 17.145 19.0199C16.485 18.3599 15.9625 17.5838 15.5775 16.6916C15.1925 15.7993 15 14.846 15 13.8316C15 12.8171 15.1925 11.8638 15.5775 10.9716C15.9625 10.0793 16.485 9.30323 17.145 8.64323C17.805 7.98323 18.5811 7.46073 19.4733 7.07573C20.3656 6.69073 21.3189 6.49823 22.3333 6.49823C23.3478 6.49823 24.3011 6.69073 25.1933 7.07573C26.0856 7.46073 26.8617 7.98323 27.5217 8.64323C28.1817 9.30323 28.7042 10.0793 29.0892 10.9716C29.4742 11.8638 29.6667 12.8171 29.6667 13.8316C29.6667 14.846 29.4742 15.7993 29.0892 16.6916C28.7042 17.5838 28.1817 18.3599 27.5217 19.0199C26.8617 19.6799 26.0856 20.2024 25.1933 20.5874C24.3011 20.9724 23.3478 21.1649 22.3333 21.1649Z" fill="#894189"/>
<path d="M22.2667 18.4982L25.1667 12.8315H23.1667V9.16486L20.1667 14.8315H22.2667V18.4982ZM22.6667 20.4982C21.7444 20.4982 20.8778 20.3232 20.0667 19.9732C19.2556 19.6232 18.55 19.1482 17.95 18.5482C17.35 17.9482 16.875 17.2426 16.525 16.4315C16.175 15.6204 16 14.7537 16 13.8315C16 12.9093 16.175 12.0426 16.525 11.2315C16.875 10.4204 17.35 9.71486 17.95 9.11486C18.55 8.51486 19.2556 8.03986 20.0667 7.68986C20.8778 7.33986 21.7444 7.16486 22.6667 7.16486C23.5889 7.16486 24.4556 7.33986 25.2667 7.68986C26.0778 8.03986 26.7833 8.51486 27.3833 9.11486C27.9833 9.71486 28.4583 10.4204 28.8083 11.2315C29.1583 12.0426 29.3333 12.9093 29.3333 13.8315C29.3333 14.7537 29.1583 15.6204 28.8083 16.4315C28.4583 17.2426 27.9833 17.9482 27.3833 18.5482C26.7833 19.1482 26.0778 19.6232 25.2667 19.9732C24.4556 20.3232 23.5889 20.4982 22.6667 20.4982Z" fill="white"/>
</svg>
